<?xml version="1.0" encoding="UTF-8"?>
<svg width="178px" height="60px" viewBox="0 0 178 60" version="1.1" xmlns="http://www.w3.org/2000/svg" xmlns:xlink="http://www.w3.org/1999/xlink">
    <!-- Generator: Sketch 46.2 (44496) - http://www.bohemiancoding.com/sketch -->
    <title>electric2</title>
    <desc>Created with Sketch.</desc>
    <defs></defs>
    <g id="Page-1" stroke="none" stroke-width="1" fill="none" fill-rule="evenodd">
        <g id="electric2">
            <g id="Group" transform="translate(10.000000, 5.000000)">
                <polygon id="bottom" fill="#E993C4" transform="translate(79.000000, 37.500000) scale(1, -1) translate(-79.000000, -37.500000) " points="0 27.0231425 30.4512432 39.4535785 28.8352297 33.3096779 46.2445717 36.7263501 42.2109577 42.7309898 68.3932021 50 89.806697 49.6866808 115.493817 42.7309898 111.692993 37.407463 130.165768 34.641892 127.682187 39.4535785 158 26.6202307 134.017846 34.3613889 136.01552 30.0374077 103.599079 34.0064428 108.466659 40.1292933 85.0253715 44.6154446 94.9593607 25 81.753675 38.5107893 78.7846238 30.0374077 75.6802365 39.1079731 63.5670584 25.8048139 72.1377959 44.8898589 48.9474104 40.1292933 53.8611589 33.6050456 22.5312917 29.0273512 24.3857169 33.6050456"></polygon>
                <polygon id="top" fill="#E993C4" points="0 2.02314251 30.4512432 14.4535785 28.8352297 8.30967793 46.2445717 11.7263501 42.2109577 17.7309898 68.3932021 25 89.806697 24.6866808 115.493817 17.7309898 111.692993 12.407463 130.165768 9.64189203 127.682187 14.4535785 158 1.62023068 134.017846 9.36138889 136.01552 5.03740774 103.599079 9.00644275 108.466659 15.1292933 85.0253715 19.6154446 94.9593607 0 81.753675 13.5107893 78.7846238 5.03740774 75.6802365 14.1079731 63.5670584 0.804813866 72.1377959 19.8898589 48.9474104 15.1292933 53.8611589 8.60504562 22.5312917 4.0273512 24.3857169 8.60504562"></polygon>
                <g id="center" transform="translate(62.000000, 9.000000)">
                    <polygon id="Path-2" stroke="#E993C4" fill="#F6F8F4" points="16.3364934 0.944943949 0.292685288 17.4955602 16.6583643 32.2413204 32.3803015 16.575216"></polygon>
                    <polygon id="Path-2-Copy" stroke="#E993C4" points="16.481744 7.00668922 6.9363033 17.1413998 17.0990794 26.3862351 25.9645826 16.6001096"></polygon>
                    <polygon id="Path-2-Copy-2" fill="#E993C4" points="16.5547503 11.7910649 11.4809596 17.1129767 16.9283891 21.9829792 21.8237487 16.887022"></polygon>
                </g>
            </g>
        </g>
    </g>
</svg>